# xmcd CD database file
#
# Track frame offsets:
#	150
#	19275
#	38250
#	52575
#	69450
#	89625
#	113700
#	129975
#	149850
#	174825
#	204900
#	231825
#	251100
#	268875
#	282450
#	296625
#
# Disc length: 4331 seconds
#
# Revision: 0
# Processed by: cddbd v1.5.2PL0 Copyright (c) Steve Scherf et al.
# Submitted via: CDex 1.51
#
DISCID=ec10e910
DTITLE=Tommy Flanagan Trio - Complete Original Recordings
DYEAR=2007
DGENRE=Jazz
TTITLE0=Lucky To Be Me
TTITLE1=Glitter And Be Gay
TTITLE2=Make Our Garden Grow
TTITLE3=In The Blue Of The Evening
TTITLE4=You Got My Head
TTITLE5=Velvet Moon
TTITLE6=Come Sunday
TTITLE7=Born To Be Blue
TTITLE8=Jes'Fine
TTITLE9=In A Sentimental Mood
TTITLE10=How Long Has This Been Going On ?
TTITLE11=So Sorry Please
TTITLE12=Love For Sale
TTITLE13=Anything I Do
TTITLE14=Softly, As In A Morning Sunrise
TTITLE15=All Of You
EXTD=YEAR: 2007
EXTT0=
EXTT1=
EXTT2=
EXTT3=
EXTT4=
EXTT5=
EXTT6=
EXTT7=
EXTT8=
EXTT9=
EXTT10=
EXTT11=
EXTT12=
EXTT13=
EXTT14=
EXTT15=
PLAYORDER=
